<svg width="17" height="28" viewBox="0 0 17 28" fill="none" xmlns="http://www.w3.org/2000/svg">
<g clip-path="url(#clip0)">
<path d="M0 7.61239C0 6.47677 0.618767 5.43137 1.61432 4.88501L5.45257 2.77858V21.374L10.9008 24.7939L7.13309 27.011C6.10533 27.6158 4.8223 27.58 3.82996 26.9187L1.38586 25.2899C0.520074 24.713 0 23.7414 0 22.701V7.61239Z" fill="#81D8DF"/>
<path d="M5.34296 2.77858L10.6865 5.77093V11.7556L5.34296 15.3892V2.77858Z" fill="#6EC8DF"/>
<path d="M5.34296 15.3893L10.6865 11.7557L14.8352 14.4683C15.714 15.043 16.2437 16.0222 16.2437 17.0722V19.6714C16.2437 20.7323 15.7032 21.72 14.8097 22.2918L10.9002 24.7939L10.6865 18.5954L5.34296 15.3893Z" fill="#57B7DD"/>
<path d="M5.34296 2.77863L9.16495 0.791206C10.1121 0.298669 11.2457 0.326195 12.1679 0.864124L14.2728 2.09198C15.2285 2.64953 15.8163 3.67277 15.8163 4.7793V7.19021C15.8163 8.29671 15.2285 9.31995 14.2728 9.87746L10.6865 11.9695L10.4727 5.77099L5.34296 2.77863Z" fill="#57B7DD"/>
<path d="M5.34296 15.3893L10.6865 18.5954L10.9002 24.7939L5.34296 21.374V15.3893Z" fill="#6EC8DF"/>
</g>
<defs>
<clipPath id="clip0">
<rect width="16.8" height="28" fill="white"/>
</clipPath>
</defs>
</svg>
