<svg width="345" height="341" viewBox="0 0 345 341" fill="none" xmlns="http://www.w3.org/2000/svg">
<rect width="345" height="341" rx="28" fill="#B5DBED"/>
<path d="M124 263C122.833 264.167 122.083 264.667 121.75 264.5C121.417 264.333 121.417 263.917 121.75 263.25C122.083 262.75 122.333 262.333 122.5 262C123.833 260.5 124.833 259.417 125.5 258.75C126.333 257.917 127.25 257.083 128.25 256.25C124.25 250.917 121.333 245.25 119.5 239.25C117.667 233.083 116.583 226.75 116.25 220.25C115.917 213.75 116.167 207.167 117 200.5C118 193.833 119.25 187.333 120.75 181C123.75 168.5 127.167 156.333 131 144.5C135 132.5 138.333 121 141 110C135.667 111 130.833 112.333 126.5 114C122.333 115.667 119.583 117.5 118.25 119.5C117.75 120.333 117.25 120.667 116.75 120.5C116.417 120.333 116.583 119.583 117.25 118.25C118.583 115.417 121 112.917 124.5 110.75C128 108.417 132 106.5 136.5 105C141 103.5 145.833 102.333 151 101.5C156.333 100.667 161.417 100.333 166.25 100.5C177.083 100.833 186.083 102.917 193.25 106.75C200.583 110.583 204.333 116.25 204.5 123.75C204.5 128.417 202.833 133.083 199.5 137.75C196.333 142.417 192.417 146.833 187.75 151C183.25 155 178.417 158.667 173.25 162C168.083 165.167 163.667 167.667 160 169.5L159 173C161.5 170.833 164.833 169.083 169 167.75C173.167 166.417 177.5 165.75 182 165.75C186.667 165.75 191.167 166.583 195.5 168.25C200 169.75 203.917 172.25 207.25 175.75C211.75 180.75 214.583 186.5 215.75 193C217.083 199.333 216.75 205.583 214.75 211.75C212.917 217.917 209.833 223 205.5 227C201.167 230.833 196.75 233.75 192.25 235.75C191.75 236.083 190.833 236.5 189.5 237C188.167 237.333 187.333 237.25 187 236.75C186.833 236.417 187.25 235.833 188.25 235C189.25 234 190 233.333 190.5 233C195 230 198.833 225.917 202 220.75C205.167 215.583 207.083 210.25 207.75 204.75C208.583 199.083 208 193.667 206 188.5C204 183.333 200.083 179.333 194.25 176.5C191.917 175.333 188.833 174.5 185 174C181.167 173.333 177.333 173.167 173.5 173.5C169.667 173.667 166.083 174.5 162.75 176C159.583 177.5 157.333 179.833 156 183C159 181.167 162.417 179.75 166.25 178.75C170.083 177.75 173.917 177.333 177.75 177.5C181.75 177.5 185.5 178.25 189 179.75C192.5 181.083 195.417 183.167 197.75 186C200.583 189.5 202.167 193.167 202.5 197C203 200.833 202.583 204.583 201.25 208.25C200.083 211.917 198.083 215.333 195.25 218.5C192.583 221.667 189.5 224.333 186 226.5C181.333 229.333 176.167 232.167 170.5 235C164.833 237.667 159.167 240.5 153.5 243.5C147.833 246.333 142.417 249.417 137.25 252.75C132.083 255.917 127.667 259.333 124 263ZM154 191.5C151 199 148.5 206.583 146.5 214.25C144.667 221.75 142.583 228.667 140.25 235C139.417 237.167 138.833 238.167 138.5 238C138 237.833 137.75 237.417 137.75 236.75C137.75 235.917 137.75 235.083 137.75 234.25C138.25 221.583 140.083 209.083 143.25 196.75C146.417 184.25 149.833 171.667 153.5 159C155.833 151.167 158 143.167 160 135C162.167 126.667 163.417 117.75 163.75 108.25H159.5C159.667 112.75 159.5 117.25 159 121.75C158.667 126.083 158.083 129.833 157.25 133C154.917 142 152.083 151.333 148.75 161C145.417 170.667 141.917 179.833 138.25 188.5C138.083 188.833 137.667 189.667 137 191C136.5 192.167 136 192.667 135.5 192.5C135.167 192.333 134.917 191.583 134.75 190.25C134.75 188.917 134.833 188 135 187.5C135.167 185.5 135.5 183 136 180C136.667 177 137.25 173.917 137.75 170.75C138.417 167.583 139.083 164.5 139.75 161.5C140.583 158.5 141.333 155.917 142 153.75C142.167 152.917 142.583 151 143.25 148C144.083 145 144.917 141.417 145.75 137.25C146.583 132.917 147.417 128.333 148.25 123.5C149.25 118.5 150.083 113.667 150.75 109C149.417 109 148.417 109.083 147.75 109.25C146.917 115.417 145.667 121.667 144 128C142.5 134.333 140.75 140.75 138.75 147.25C136.75 153.75 134.75 160.25 132.75 166.75C130.75 173.083 129 179.5 127.5 186C126.167 191.5 125.167 197.25 124.5 203.25C123.833 209.25 123.5 215.25 123.5 221.25C123.5 227.083 124 232.833 125 238.5C126 244.167 127.583 249.583 129.75 254.75L132 252.5C131.5 251.333 131 249.917 130.5 248.25C130 246.583 129.583 244.583 129.25 242.25C128.917 240.417 128.667 238.083 128.5 235.25C128.5 232.417 128.583 229.667 128.75 227C128.917 224.333 129.167 222.083 129.5 220.25C129.833 218.417 130.333 217.5 131 217.5C131.167 217.5 131.333 217.917 131.5 218.75C131.833 219.583 132.083 220.583 132.25 221.75C132.417 222.917 132.583 224 132.75 225C132.917 226 133 226.75 133 227.25C133.167 228.75 133.333 230.417 133.5 232.25C133.667 234.083 133.833 236 134 238C134.333 240 134.583 242 134.75 244C135.083 245.833 135.5 247.417 136 248.75C139.833 245.25 143.917 242.167 148.25 239.5C152.583 236.667 156.833 234.083 161 231.75C165.333 229.417 169.5 227.167 173.5 225C177.5 222.833 181 220.667 184 218.5C189.167 215 192.5 210.583 194 205.25C195.5 199.75 194.583 194.833 191.25 190.5C189.083 187.667 186.083 185.667 182.25 184.5C178.583 183.333 174.75 182.917 170.75 183.25C166.917 183.417 163.417 184.25 160.25 185.75C157.083 187.25 155 189.167 154 191.5ZM193.75 153.25C194.083 153.417 193.667 154.333 192.5 156C191.5 157.5 190.833 158.583 190.5 159.25C196.167 158.417 201.167 156.417 205.5 153.25C210 150.083 213.583 146.333 216.25 142C218.917 137.5 220.583 132.667 221.25 127.5C221.917 122.167 221.417 116.833 219.75 111.5C218.083 106.167 215.333 101.667 211.5 98C207.667 94.3333 203.25 91.3333 198.25 89C193.25 86.6667 187.833 85 182 84C176.167 83 170.333 82.5833 164.5 82.75C158.667 82.75 153.083 83.25 147.75 84.25C142.417 85.25 137.75 86.6667 133.75 88.5C132.917 88.8333 132.417 89 132.25 89C132.25 89 132.167 88.9167 132 88.75C131.833 88.25 132.25 87.6667 133.25 87C137.417 83.3333 142.667 80.5833 149 78.75C155.5 76.9167 162.25 76 169.25 76C176.417 76 183.583 77 190.75 79C197.917 80.8333 204.333 83.75 210 87.75C215.833 91.5833 220.583 96.5833 224.25 102.75C228.083 108.75 230.167 115.833 230.5 124C230.667 129 230 133.583 228.5 137.75C227 141.75 225 145.333 222.5 148.5C220 151.667 217.083 154.417 213.75 156.75C210.583 158.917 207.25 160.75 203.75 162.25C209.25 164.75 214 168.667 218 174C222 179.167 224.833 184.333 226.5 189.5C228.5 196.333 228.917 202.833 227.75 209C226.75 215.167 224.917 220.75 222.25 225.75C219.75 230.75 216.833 235.083 213.5 238.75C210.333 242.25 207.583 244.75 205.25 246.25C200.417 249.417 195.5 251.917 190.5 253.75C185.5 255.417 180.583 256.75 175.75 257.75C170.917 258.583 166.25 259.167 161.75 259.5C157.417 259.833 153.5 260.083 150 260.25C147.333 260.583 146 260.5 146 260C145.833 259.667 146.25 259.333 147.25 259C148.417 258.833 149.417 258.667 150.25 258.5C156.75 257.333 163.167 255.75 169.5 253.75C175.833 251.75 182.25 249.083 188.75 245.75C191.917 244.083 195.167 242.167 198.5 240C202 237.667 205.167 235 208 232C211 228.833 213.5 225.333 215.5 221.5C217.667 217.667 219.083 213.417 219.75 208.75C220.583 202.917 220.417 197.167 219.25 191.5C218.25 185.667 215.5 180.083 211 174.75C206.667 169.583 202.083 166.083 197.25 164.25C192.583 162.417 187.5 161.667 182 162C180.667 162 180 161.917 180 161.75C180 161.417 180.917 160.833 182.75 160C184.583 159.167 185.75 158.583 186.25 158.25C187.75 157.25 189.333 156.083 191 154.75C192.667 153.417 193.583 152.917 193.75 153.25ZM196.75 124.75C196.75 119.417 193.917 115.583 188.25 113.25C182.583 110.75 174.75 109.083 164.75 108.25C165.917 113.417 166.667 118.167 167 122.5C167.333 126.833 167.25 131.167 166.75 135.5C166.417 139.667 165.667 144.083 164.5 148.75C163.5 153.25 162.333 158.25 161 163.75C164.5 162.083 168.333 159.583 172.5 156.25C176.667 152.75 180.5 149.167 184 145.5C187.667 141.667 190.667 137.917 193 134.25C195.5 130.417 196.75 127.25 196.75 124.75ZM162.25 86.5C167.917 86.1667 174.333 86.8333 181.5 88.5C188.833 90 195.417 92.5 201.25 96C204.25 97.8333 206.75 100.083 208.75 102.75C210.75 105.417 212.25 108.25 213.25 111.25C214.417 114.083 215.083 117 215.25 120C215.417 123 215.083 125.75 214.25 128.25C214.083 128.583 213.917 129.083 213.75 129.75C213.583 130.25 213.333 130.833 213 131.5C212.667 132 212.333 132.5 212 133C211.667 133.333 211.333 133.417 211 133.25C210.5 133.25 210.25 132.667 210.25 131.5C210.417 130.333 210.667 129.083 211 127.75C211.833 123.083 211.417 119 209.75 115.5C208.25 112 205.917 109.083 202.75 106.75C199.583 104.25 195.917 102.25 191.75 100.75C187.583 99.25 183.25 98.0833 178.75 97.25C174.417 96.4167 170.167 96 166 96C161.833 95.8333 158.25 95.9167 155.25 96.25C151.083 96.75 146.917 97.5833 142.75 98.75C138.75 99.75 135 100.917 131.5 102.25C128 103.583 125 105 122.5 106.5C120 108 118.25 109.417 117.25 110.75C116.25 112.083 115.667 112.5 115.5 112C115.5 111.5 115.667 110.75 116 109.75C117.167 106.417 119.333 103.417 122.5 100.75C125.667 97.9167 129.333 95.5 133.5 93.5C137.667 91.5 142.25 89.9167 147.25 88.75C152.25 87.5833 157.25 86.8333 162.25 86.5ZM150 255C144.5 257.167 140.083 259.083 136.75 260.75C133.583 262.417 130.417 264.583 127.25 267.25C126.917 267.417 126.583 267.75 126.25 268.25C125.917 268.75 125.583 268.917 125.25 268.75C124.917 268.583 124.917 268.083 125.25 267.25C125.583 266.583 125.917 266.083 126.25 265.75C127.917 263.417 130.083 261.167 132.75 259C135.417 256.667 139.167 254.5 144 252.5C145.667 251.833 147.5 251.167 149.5 250.5C151.667 249.667 153.667 249 155.5 248.5C157.5 248 159.083 247.667 160.25 247.5C161.583 247.333 162.417 247.5 162.75 248C162.917 248.333 162.417 248.833 161.25 249.5C160.083 250.167 158.75 250.917 157.25 251.75C155.75 252.417 154.25 253.083 152.75 253.75C151.417 254.417 150.5 254.833 150 255Z" fill="white"/>
</svg>
